<svg xmlns="http://www.w3.org/2000/svg" viewBox="0 0 432.08 352.71"><defs><style>.cls-1{stroke:#1d1d1b;stroke-miterlimit:10;}</style></defs><title>crack01</title><g id="Layer_2" data-name="Layer 2"><g id="Layer_1-2" data-name="Layer 1"><path class="cls-1" d="M164.9,136.74,144.46,72.3l22.22-26.23-51-44.29,73.63,32.29L171.57,72.74l36.89,56.44,37.78-9.77,22.22-38.67L264.9,39.85,291.57,12.3,277.79,39.41,292,107.85l-39.55,42.67,20.29-3.26,37.93-18.52q5.55-14.67,11.11-29.33S351.26,90.65,372.46,71c8.13-7.56,14.22-13.33,14.22-13.33l-5.33,25.78-42.67,18.66-2.22,42.23L304,166.52l-25.17,16.54L264.9,184.3l54.67,35.11,24-27.56,49.33-1.78L408.46,155l21.33-6.66-15.11,12.44L403.57,204.3l-46.67,6.22L343.12,240.3l-46.22-2.23-14.66-6.66,11.3,18.46q3.68,9.88,7.36,19.76l-17.37-17.11-20.41-10.45q4.23,21.48,8.45,43L292,314.52l41.78,36-48.44-23.11L246.68,291l-26.22-83.55-33.93,45.33-.89,30.81q-3.91,16.15-7.85,32.3Q180.91,333.4,184,351l-23.55-28,3.11-52-8.89-26.66L184.46,195l-42.37,32.59-5.19,34.52L89.79,277.18,35.57,259.85l50.67-.44L108,234.07l12.45-37.33c8-5.05,41.49-21.94,50.22-25.33L79.57,168.3,48.46,139.85,25.64,144.3l-24.18,14q9.51-15.47,19-30.94l47.11-5.34,40.89,24.45Z"/></g></g></svg>